<svg width="32" height="34" viewBox="0 0 32 34" fill="none" xmlns="http://www.w3.org/2000/svg">
    <g clip-path="url(#fmcjysaqna)" fill="#fff">
        <path d="M30.317 24.102h-10.62a1.054 1.054 0 1 1 0-2.108h10.62a1.054 1.054 0 0 1 0 2.108z"/>
        <path d="M17.143 26.656a3.612 3.612 0 0 1-3.608-3.608 3.612 3.612 0 0 1 3.608-3.608 3.612 3.612 0 0 1 3.609 3.608 3.612 3.612 0 0 1-3.609 3.608zm0-5.11a1.502 1.502 0 0 0 0 3.001c.828.001 1.501-.672 1.501-1.5 0-.827-.673-1.5-1.5-1.5z"/>
        <path d="M14.588 24.102H1.648a1.054 1.054 0 1 1 0-2.108h12.94a1.054 1.054 0 1 1 0 2.108zM30.317 15.969H10.02a1.054 1.054 0 1 1 0-2.108h20.298a1.054 1.054 0 1 1 0 2.108z"/>
        <path d="M7.464 18.523a3.612 3.612 0 0 1-3.609-3.608 3.612 3.612 0 0 1 3.609-3.608 3.612 3.612 0 0 1 3.608 3.608 3.613 3.613 0 0 1-3.608 3.608zm0-5.109c-.828 0-1.501.674-1.501 1.501 0 .828.673 1.5 1.5 1.5.828 0 1.502-.672 1.502-1.5 0-.827-.674-1.5-1.501-1.5z"/>
        <path d="M4.91 15.969H1.647a1.054 1.054 0 1 1 0-2.108H4.91a1.054 1.054 0 1 1 0 2.108zM20.422 7.838H1.648a1.054 1.054 0 1 1 0-2.108h18.774a1.054 1.054 0 1 1 0 2.108z"/>
        <path d="M22.975 10.393a3.612 3.612 0 0 1-3.608-3.609 3.612 3.612 0 0 1 3.608-3.608 3.612 3.612 0 0 1 3.609 3.608 3.612 3.612 0 0 1-3.609 3.609zm0-5.11c-.827 0-1.5.674-1.5 1.501 0 .828.673 1.501 1.5 1.501.828 0 1.501-.673 1.501-1.5 0-.828-.673-1.502-1.5-1.502z"/>
        <path d="M30.318 7.838H25.53a1.054 1.054 0 1 1 0-2.108h4.788a1.054 1.054 0 1 1 0 2.108zM30.317 32.234H10.02a1.054 1.054 0 1 1 0-2.107h20.298a1.054 1.054 0 1 1 0 2.107z"/>
        <path d="M7.464 34.789a3.612 3.612 0 0 1-3.609-3.608 3.612 3.612 0 0 1 3.609-3.609 3.612 3.612 0 0 1 3.608 3.609 3.613 3.613 0 0 1-3.608 3.608zm0-5.11c-.828 0-1.501.674-1.501 1.501 0 .828.673 1.5 1.5 1.5.828 0 1.502-.672 1.502-1.5 0-.827-.674-1.5-1.501-1.5z"/>
        <path d="M4.91 32.234H1.647a1.054 1.054 0 1 1 0-2.107H4.91a1.054 1.054 0 1 1 0 2.107z"/>
    </g>
    <defs>
        <clipPath id="fmcjysaqna">
            <path fill="#fff" d="M0 0h32v34H0z"/>
        </clipPath>
    </defs>
</svg>
